<?xml version="1.0" encoding="UTF-8" standalone="no"?>
<!DOCTYPE svg PUBLIC "-//W3C//DTD SVG 1.1//EN" "http://www.w3.org/Graphics/SVG/1.1/DTD/svg11.dtd">
<svg xmlns="http://www.w3.org/2000/svg" version="1.1" viewBox="0 0 200 200">
<path fill="rgb(0,103,86)" fill-opacity="1.000" d="M 0.00 0.00 Q 100.00 0.00 200.00 0.00 Q 200.00 100.00 200.00 200.00 Q 100.00 200.00 0.00 200.00 Q 0.00 100.00 0.00 0.00 Z M 47.47 100.82 Q 44.95 101.66 44.81 104.11 Q 44.71 105.84 44.90 107.90 Q 45.21 111.15 49.25 111.50 Q 55.78 112.07 55.85 106.57 Q 55.87 104.32 55.65 103.44 Q 55.26 101.88 53.62 100.81 A 0.75 0.75 -46.1 0 1 53.60 99.57 Q 55.36 98.33 55.71 96.33 Q 55.96 94.85 55.76 92.66 Q 55.42 88.92 51.75 88.50 Q 49.18 88.21 47.78 88.70 Q 45.98 89.33 44.63 91.63 A 0.30 0.30 -39.8 0 1 44.11 91.63 Q 42.76 89.27 40.80 88.67 Q 39.26 88.19 36.68 88.46 Q 33.37 88.79 32.84 92.11 Q 32.47 94.41 32.68 95.88 Q 32.97 97.96 35.08 99.14 A 0.81 0.80 42.6 0 1 35.14 100.51 Q 33.01 101.94 32.69 104.19 Q 32.42 106.13 32.85 108.31 Q 33.49 111.57 37.50 111.79 Q 45.75 112.25 44.18 104.22 Q 43.81 102.33 43.23 103.10 Q 43.00 103.41 43.03 103.95 Q 43.13 106.16 42.79 108.46 Q 42.52 110.25 40.72 110.25 L 36.47 110.25 Q 34.00 110.25 34.00 107.78 L 34.00 103.23 Q 34.00 101.16 36.07 101.25 Q 37.95 101.34 39.84 101.17 Q 42.00 100.97 43.30 99.99 Q 46.36 97.70 45.67 93.26 Q 45.17 90.15 47.34 89.59 Q 48.12 89.39 50.67 89.35 Q 55.46 89.27 55.06 94.00 Q 54.85 96.41 54.62 97.12 Q 53.98 99.08 51.26 98.70 Q 46.97 98.11 44.21 101.22 Q 42.79 102.83 44.42 101.94 A 1.49 1.10 -82.6 0 0 44.92 101.42 Q 45.92 99.60 47.51 100.42 Q 47.96 100.66 47.47 100.82 Z M 121.29 94.45 Q 121.20 92.60 121.21 90.75 Q 121.22 88.92 119.76 89.57 A 0.83 0.78 78.3 0 0 119.30 90.31 L 119.30 99.19 A 0.77 0.75 -79.3 0 0 119.77 99.90 Q 121.77 100.66 121.39 97.82 Q 121.32 97.27 121.76 97.52 Q 122.53 97.97 123.06 98.94 Q 124.01 100.67 125.72 100.12 A 0.37 0.36 -29.3 0 0 125.89 99.53 L 123.70 97.08 A 1.16 1.08 45.5 0 1 123.66 95.58 Q 124.46 94.70 125.11 93.46 Q 125.67 92.40 124.45 92.70 Q 124.10 92.78 123.77 93.11 Q 122.84 94.01 121.75 94.68 A 0.30 0.29 -17.4 0 1 121.29 94.45 Z M 63.56 98.44 Q 61.56 97.55 61.38 95.61 Q 61.23 93.99 62.28 92.56 Q 63.97 90.25 66.80 92.49 A 1.92 1.29 58.1 0 0 67.67 92.88 Q 69.84 93.11 68.52 91.46 Q 68.11 90.94 67.46 90.60 Q 63.53 88.52 61.09 91.01 Q 59.19 92.95 59.62 96.09 Q 60.39 101.65 66.95 99.71 A 0.97 0.75 53.5 0 1 67.76 99.94 Q 68.16 100.29 68.70 100.27 A 0.58 0.53 89.0 0 0 69.21 99.69 L 69.24 95.12 A 0.56 0.52 90.0 0 0 68.72 94.56 L 65.43 94.60 A 0.72 0.70 -82.5 0 0 64.75 95.14 Q 64.56 95.85 65.49 95.80 Q 68.20 95.66 66.69 97.69 Q 65.49 99.29 63.56 98.44 Z M 72.75 91.80 Q 73.18 95.06 73.03 98.35 Q 73.00 99.15 73.14 99.62 Q 73.59 101.07 74.60 100.06 A 1.29 1.12 70.7 0 0 74.95 99.18 L 75.00 92.42 A 1.20 1.18 -88.6 0 1 76.23 91.23 Q 78.60 91.33 77.97 90.21 A 0.94 0.79 -12.2 0 0 77.19 89.80 L 71.25 89.74 A 0.91 0.83 13.4 0 0 70.48 90.17 Q 69.50 91.90 72.21 91.41 A 0.46 0.46 -8.9 0 1 72.75 91.80 Z M 81.15 94.43 L 82.92 97.78 A 1.42 1.25 51.9 0 0 85.11 98.19 Q 86.29 96.74 87.22 94.59 Q 88.15 92.42 87.86 97.92 Q 87.80 99.03 88.23 100.04 Q 88.59 100.86 89.41 100.11 A 1.26 1.03 72.2 0 0 89.75 99.25 Q 89.76 95.38 89.89 91.50 Q 89.98 89.02 88.01 89.85 A 1.38 1.34 -87.2 0 0 87.32 90.49 L 84.79 95.47 Q 84.27 96.49 83.82 95.46 Q 82.62 92.72 81.06 90.19 Q 80.35 89.03 79.36 89.89 A 1.17 1.15 -19.9 0 0 78.95 90.75 L 78.79 99.69 A 0.63 0.60 -85.3 0 0 79.30 100.32 Q 79.91 100.41 80.38 100.09 A 1.10 0.74 79.1 0 0 80.74 99.25 L 80.79 94.57 Q 80.80 93.77 81.15 94.43 Z M 98.65 89.87 Q 96.92 89.60 94.78 89.83 A 0.58 0.57 -2.8 0 0 94.26 90.40 L 94.28 98.66 A 1.61 1.58 0.4 0 0 95.87 100.24 Q 103.87 100.34 100.76 94.93 A 0.74 0.71 -41.0 0 1 100.83 94.12 Q 102.17 92.44 101.15 91.12 Q 100.38 90.14 98.65 89.87 Z M 107.20 95.67 Q 105.11 95.65 103.46 96.77 A 1.19 1.17 -12.0 0 0 102.95 97.54 Q 102.36 100.79 106.19 100.19 Q 107.75 99.94 108.19 100.06 Q 110.05 100.58 109.90 98.84 Q 109.81 97.77 109.87 97.15 Q 110.17 93.83 107.44 92.81 Q 104.71 91.79 103.23 94.31 A 0.54 0.50 -60.3 0 0 103.40 95.04 Q 104.08 95.42 104.68 94.96 Q 105.48 94.34 105.55 94.31 Q 107.03 93.67 107.56 95.20 A 0.37 0.36 -8.9 0 1 107.20 95.67 Z M 112.36 93.20 Q 110.27 91.70 110.76 94.75 Q 111.10 96.85 110.88 98.94 A 1.66 1.10 -65.4 0 0 111.03 99.88 Q 111.68 100.98 112.45 100.14 A 1.48 0.93 76.1 0 0 112.74 99.26 L 112.79 96.05 A 1.41 1.38 -24.8 0 1 113.12 95.18 Q 114.78 93.28 115.78 95.09 Q 116.18 95.81 116.22 97.11 Q 116.26 98.15 116.30 99.19 A 1.01 0.89 -76.3 0 0 116.72 99.99 Q 117.95 100.79 118.02 99.19 Q 118.06 98.04 118.09 97.82 Q 118.77 91.49 113.21 93.34 A 0.97 0.92 52.9 0 1 112.36 93.20 Z M 79.13 105.07 Q 78.28 107.80 78.24 110.00 Q 78.22 111.01 78.79 110.73 A 1.23 0.79 -89.4 0 0 79.30 109.95 Q 79.89 107.31 79.78 105.15 Q 79.69 103.26 79.13 105.07 Z M 61.2240 110.3146 A 3.28 2.88 123.2 0 0 65.4299 109.1470 A 3.28 2.88 123.2 0 0 64.8160 104.8254 A 3.28 2.88 123.2 0 0 60.6101 105.9930 A 3.28 2.88 123.2 0 0 61.2240 110.3146 Z M 103.97 105.73 Q 103.15 106.42 103.51 107.31 A 1.24 0.94 52.2 0 1 103.52 108.19 Q 102.58 110.17 104.44 110.60 Q 104.92 110.72 104.74 110.23 Q 104.03 108.40 105.18 106.88 A 0.99 0.72 -41.9 0 0 105.36 106.03 Q 104.92 104.92 103.97 105.73 Z M 139.45 107.50 Q 140.12 106.87 139.98 106.16 A 0.73 0.65 -2.2 0 0 139.32 105.62 Q 137.68 105.50 138.11 107.27 A 1.80 1.80 -42.7 0 1 138.07 108.22 Q 137.42 110.25 139.21 110.82 A 0.32 0.29 -87.9 0 0 139.58 110.44 L 139.15 108.30 A 0.96 0.76 -31.2 0 1 139.45 107.50 Z M 100.57 106.28 Q 97.49 106.94 98.62 109.98 A 1.19 1.05 87.5 0 0 99.26 110.64 Q 100.91 111.24 101.81 109.81 Q 103.02 107.91 101.45 106.50 A 1.03 0.97 -29.2 0 0 100.57 106.28 Z M 68.75 106.50 Q 70.00 107.67 69.28 109.26 Q 69.00 109.89 69.21 110.36 A 0.39 0.35 -38.9 0 0 69.84 110.39 Q 70.85 109.17 70.31 107.19 Q 69.92 105.72 68.75 106.50 Q 67.38 105.74 66.38 109.02 A 1.55 1.53 -63.8 0 0 66.95 110.72 Q 67.42 111.06 67.61 109.92 Q 67.92 108.13 68.75 106.50 Z M 75.25 110.25 Q 76.96 111.42 77.07 109.79 Q 77.14 108.85 77.25 108.36 Q 77.93 105.35 74.81 106.56 Q 72.50 107.46 73.44 109.81 Q 74.11 111.50 75.25 110.25 Z M 85.00 107.00 Q 85.99 107.53 85.71 108.50 Q 85.45 109.42 85.44 109.53 Q 85.32 111.22 86.50 110.25 Q 87.84 109.16 86.69 107.06 Q 85.73 105.32 85.00 107.00 Q 80.49 104.53 80.56 109.81 Q 80.58 110.93 81.17 110.62 A 1.31 0.76 -87.1 0 0 81.68 109.83 Q 83.22 103.62 83.08 110.19 A 0.49 0.38 85.9 0 0 83.55 110.71 Q 83.97 110.61 84.00 110.00 Q 84.08 108.61 85.00 107.00 Z M 88.97 109.48 Q 89.26 109.01 90.00 108.75 Q 92.00 108.04 90.78 106.66 A 1.17 1.01 -17.7 0 0 89.94 106.30 Q 88.40 106.30 89.53 106.88 A 1.37 0.97 8.7 0 1 90.13 107.46 Q 90.57 108.48 89.75 108.16 A 1.57 0.86 73.8 0 1 89.09 107.50 Q 88.23 106.01 87.88 108.32 Q 87.51 110.67 89.50 110.76 A 1.21 1.21 24.4 0 0 90.38 110.43 Q 91.31 109.55 89.31 109.85 Q 88.69 109.95 88.97 109.48 Z M 95.37 108.45 Q 95.45 107.11 94.76 106.62 Q 94.23 106.23 94.33 106.88 Q 94.92 110.47 95.63 110.39 Q 95.97 110.35 96.97 108.67 Q 97.48 107.81 97.63 106.81 Q 97.73 106.18 97.19 106.41 Q 96.69 106.62 96.54 107.31 Q 96.35 108.17 95.73 108.67 Q 95.33 108.99 95.37 108.45 Z M 106.76 107.46 Q 105.92 113.11 107.80 108.07 Q 107.93 107.71 108.23 107.40 Q 109.60 105.96 107.64 106.48 A 1.20 1.20 87.1 0 0 106.76 107.46 Z M 110.90 107.47 Q 110.21 105.70 109.75 108.00 Q 109.00 111.75 112.00 110.75 Q 112.41 110.61 112.49 110.31 A 0.47 0.35 -0.1 0 0 111.94 109.90 Q 109.90 110.22 111.19 108.91 A 1.87 0.97 1.6 0 1 112.06 108.49 Q 113.46 108.17 112.81 106.86 A 1.05 0.91 -5.8 0 0 112.07 106.34 Q 110.19 106.00 111.69 107.16 A 1.28 0.75 26.2 0 1 112.17 107.89 Q 112.22 108.50 111.51 108.18 A 1.39 0.96 83.9 0 1 110.90 107.47 Z M 116.05 108.17 Q 115.14 111.75 118.73 110.37 A 0.99 0.93 88.2 0 0 119.32 109.70 Q 120.70 104.21 116.59 107.37 A 1.53 1.38 -14.0 0 0 116.05 108.17 Z M 125.18 111.21 Q 124.73 109.91 123.92 110.48 A 0.76 0.66 -29.0 0 0 123.62 111.30 Q 123.92 112.13 125.65 112.24 A 1.48 1.28 -84.7 0 0 127.03 110.92 L 127.50 107.01 A 0.69 0.51 -84.8 0 0 127.04 106.26 Q 123.86 106.10 125.74 107.09 A 0.57 0.54 25.1 0 1 126.01 107.79 Q 125.37 109.35 124.87 107.48 A 1.07 0.90 -89.8 0 0 124.30 106.80 Q 123.05 106.29 121.69 106.38 A 0.71 0.68 -85.2 0 0 121.08 106.92 L 120.43 109.71 A 0.84 0.62 -70.3 0 0 120.68 110.53 Q 121.11 110.80 121.46 110.35 Q 121.67 110.07 121.69 109.47 Q 121.75 108.12 122.31 107.56 Q 123.77 106.11 124.00 108.02 A 1.06 1.06 12.5 0 0 124.50 108.80 Q 126.46 109.99 125.62 111.30 Q 125.35 111.72 125.18 111.21 Z M 130.30 108.96 Q 132.52 108.39 131.48 106.72 A 0.89 0.85 71.4 0 0 130.70 106.31 Q 129.19 106.41 128.58 107.65 Q 128.08 108.68 128.63 109.83 Q 129.64 111.92 131.81 110.05 Q 132.32 109.61 131.66 109.77 Q 129.71 110.23 129.68 109.54 A 0.79 0.50 -10.8 0 1 130.30 108.96 Z M 135.67 108.24 Q 134.96 112.54 136.56 109.39 Q 136.78 108.96 136.84 108.56 Q 137.13 106.71 135.56 106.38 Q 134.98 106.25 135.23 106.78 L 135.49 107.32 A 1.79 1.04 48.7 0 1 135.67 108.24 Z M 132.78 109.67 Q 132.66 110.32 133.21 110.56 A 0.48 0.35 -71.1 0 0 133.73 110.20 L 134.52 107.45 A 0.59 0.45 -71.9 0 0 134.29 106.78 Q 132.48 106.07 132.85 108.69 Q 132.90 109.03 132.78 109.67 Z"/>
<path fill="rgb(67,150,135)" fill-opacity="1.000" d="M 47.51 100.42 Q 45.92 99.60 44.92 101.42 A 1.49 1.10 -82.6 0 1 44.42 101.94 Q 42.79 102.83 44.21 101.22 Q 46.97 98.11 51.26 98.70 Q 53.98 99.08 54.62 97.12 Q 54.85 96.41 55.06 94.00 Q 55.46 89.27 50.67 89.35 Q 48.12 89.39 47.34 89.59 Q 45.17 90.15 45.67 93.26 Q 46.36 97.70 43.30 99.99 Q 42.00 100.97 39.84 101.17 Q 37.95 101.34 36.07 101.25 Q 34.00 101.16 34.00 103.23 L 34.00 107.78 Q 34.00 110.25 36.47 110.25 L 40.72 110.25 Q 42.52 110.25 42.79 108.46 Q 43.13 106.16 43.03 103.95 Q 43.00 103.41 43.23 103.10 Q 43.81 102.33 44.18 104.22 Q 45.75 112.25 37.50 111.79 Q 33.49 111.57 32.85 108.31 Q 32.42 106.13 32.69 104.19 Q 33.01 101.94 35.14 100.51 A 0.81 0.80 42.6 0 0 35.08 99.14 Q 32.97 97.96 32.68 95.88 Q 32.47 94.41 32.84 92.11 Q 33.37 88.79 36.68 88.46 Q 39.26 88.19 40.80 88.67 Q 42.76 89.27 44.11 91.63 A 0.30 0.30 -47.0 0 0 44.63 91.63 Q 45.98 89.33 47.78 88.70 Q 49.18 88.21 51.75 88.50 Q 55.42 88.92 55.76 92.66 Q 55.96 94.85 55.71 96.33 Q 55.36 98.33 53.60 99.57 A 0.75 0.75 -46.1 0 0 53.62 100.81 Q 55.26 101.88 55.65 103.44 Q 55.87 104.32 55.85 106.57 Q 55.78 112.07 49.25 111.50 Q 45.21 111.15 44.90 107.90 Q 44.71 105.84 44.81 104.11 Q 44.95 101.66 47.47 100.82 Q 47.96 100.66 47.51 100.42 Z M 43.0469 91.9649 A 2.40 2.40 0 0 0 40.5972 89.6157 L 36.2781 89.7062 A 2.40 2.40 0 0 0 33.9289 92.1559 L 34.0131 96.1751 A 2.40 2.40 0 0 0 36.4628 98.5243 L 40.7819 98.4338 A 2.40 2.40 0 0 0 43.1311 95.9841 L 43.0469 91.9649 Z M 46.99 109.94 Q 48.42 110.80 49.78 110.42 Q 50.32 110.27 50.74 110.32 Q 54.64 110.75 54.85 107.46 Q 55.00 105.11 54.91 104.05 Q 54.73 101.82 51.97 101.43 Q 49.43 101.07 47.09 101.65 A 1.76 1.76 -6.9 0 0 45.75 103.36 L 45.75 107.76 A 2.54 2.54 15.5 0 0 46.99 109.94 Z"/>
<rect fill="rgb(0,140,116)" fill-opacity="1.000" x="-4.56" y="-4.41" width="9.12" height="8.82" rx="2.40" transform="translate(38.53,94.07) rotate(-1.2)"/>
<path fill="rgb(254,254,254)" fill-opacity="1.000" d="M 121.75 94.68 Q 122.84 94.01 123.77 93.11 Q 124.10 92.78 124.45 92.70 Q 125.67 92.40 125.11 93.46 Q 124.46 94.70 123.66 95.58 A 1.16 1.08 45.5 0 0 123.70 97.08 L 125.89 99.53 A 0.37 0.36 -29.3 0 1 125.72 100.12 Q 124.01 100.67 123.06 98.94 Q 122.53 97.97 121.76 97.52 Q 121.32 97.27 121.39 97.82 Q 121.77 100.66 119.77 99.90 A 0.77 0.75 -79.3 0 1 119.30 99.19 L 119.30 90.31 A 0.83 0.78 78.3 0 1 119.76 89.57 Q 121.22 88.92 121.21 90.75 Q 121.20 92.60 121.29 94.45 A 0.30 0.29 -17.4 0 0 121.75 94.68 Z"/>
<path fill="rgb(254,254,254)" fill-opacity="1.000" d="M 63.56 98.44 Q 65.49 99.29 66.69 97.69 Q 68.20 95.66 65.49 95.80 Q 64.56 95.85 64.75 95.14 A 0.72 0.70 -82.5 0 1 65.43 94.60 L 68.72 94.56 A 0.56 0.52 -90.0 0 1 69.24 95.12 L 69.21 99.69 A 0.58 0.53 89.0 0 1 68.70 100.27 Q 68.16 100.29 67.76 99.94 A 0.97 0.75 53.5 0 0 66.95 99.71 Q 60.39 101.65 59.62 96.09 Q 59.19 92.95 61.09 91.01 Q 63.53 88.52 67.46 90.60 Q 68.11 90.94 68.52 91.46 Q 69.84 93.11 67.67 92.88 A 1.92 1.29 58.1 0 1 66.80 92.49 Q 63.97 90.25 62.28 92.56 Q 61.23 93.99 61.38 95.61 Q 61.56 97.55 63.56 98.44 Z"/>
<path fill="rgb(254,254,254)" fill-opacity="1.000" d="M 72.21 91.41 Q 69.50 91.90 70.48 90.17 A 0.91 0.83 13.4 0 1 71.25 89.74 L 77.19 89.80 A 0.94 0.79 -12.2 0 1 77.97 90.21 Q 78.60 91.33 76.23 91.23 A 1.20 1.18 -88.6 0 0 75.00 92.42 L 74.95 99.18 A 1.29 1.12 70.7 0 1 74.60 100.06 Q 73.59 101.07 73.14 99.62 Q 73.00 99.15 73.03 98.35 Q 73.18 95.06 72.75 91.80 A 0.46 0.46 -8.9 0 0 72.21 91.41 Z"/>
<path fill="rgb(254,254,254)" fill-opacity="1.000" d="M 80.79 94.57 L 80.74 99.25 A 1.10 0.74 79.1 0 1 80.38 100.09 Q 79.91 100.41 79.30 100.32 A 0.63 0.60 -85.3 0 1 78.79 99.69 L 78.95 90.75 A 1.17 1.15 -19.9 0 1 79.36 89.89 Q 80.35 89.03 81.06 90.19 Q 82.62 92.72 83.82 95.46 Q 84.27 96.49 84.79 95.47 L 87.32 90.49 A 1.38 1.34 -87.2 0 1 88.01 89.85 Q 89.98 89.02 89.89 91.50 Q 89.76 95.38 89.75 99.25 A 1.26 1.03 72.2 0 1 89.41 100.11 Q 88.59 100.86 88.23 100.04 Q 87.80 99.03 87.86 97.92 Q 88.15 92.42 87.22 94.59 Q 86.29 96.74 85.11 98.19 A 1.42 1.25 51.9 0 1 82.92 97.78 L 81.15 94.43 Q 80.80 93.77 80.79 94.57 Z"/>
<path fill="rgb(254,254,254)" fill-opacity="1.000" d="M 101.15 91.12 Q 102.17 92.44 100.83 94.12 A 0.74 0.71 -41.0 0 0 100.76 94.93 Q 103.87 100.34 95.87 100.24 A 1.61 1.58 0.4 0 1 94.28 98.66 L 94.26 90.40 A 0.58 0.57 -2.8 0 1 94.78 89.83 Q 96.92 89.60 98.65 89.87 Q 100.38 90.14 101.15 91.12 Z M 99.06 91.69 Q 97.98 91.13 96.80 91.24 A 0.76 0.72 -84.5 0 0 96.17 91.79 Q 95.12 95.70 99.19 93.69 Q 101.10 92.74 99.06 91.69 Z M 98.03 95.46 A 1.58 1.57 -72.2 0 0 95.89 96.56 Q 95.21 99.54 97.96 98.78 Q 99.20 98.44 99.66 97.70 Q 100.43 96.48 98.03 95.46 Z"/>
<path fill="rgb(0,103,86)" fill-opacity="1.000" d="M 99.06 91.69 Q 101.10 92.74 99.19 93.69 Q 95.12 95.70 96.17 91.79 A 0.76 0.72 -84.5 0 1 96.80 91.24 Q 97.98 91.13 99.06 91.69 Z"/>
<path fill="rgb(254,254,254)" fill-opacity="1.000" d="M 107.56 95.20 Q 107.03 93.67 105.55 94.31 Q 105.48 94.34 104.68 94.96 Q 104.08 95.42 103.40 95.04 A 0.54 0.50 -60.3 0 1 103.23 94.31 Q 104.71 91.79 107.44 92.81 Q 110.17 93.83 109.87 97.15 Q 109.81 97.77 109.90 98.84 Q 110.05 100.58 108.19 100.06 Q 107.75 99.94 106.19 100.19 Q 102.36 100.79 102.95 97.54 A 1.19 1.17 -12.0 0 1 103.46 96.77 Q 105.11 95.65 107.20 95.67 A 0.37 0.36 -8.9 0 0 107.56 95.20 Z M 107.39 97.22 Q 105.39 96.44 104.92 97.96 A 0.55 0.54 17.9 0 0 105.27 98.64 Q 106.54 99.06 107.54 97.80 A 0.37 0.37 -60.0 0 0 107.39 97.22 Z"/>
<path fill="rgb(254,254,254)" fill-opacity="1.000" d="M 113.21 93.34 Q 118.77 91.49 118.09 97.82 Q 118.06 98.04 118.02 99.19 Q 117.95 100.79 116.72 99.99 A 1.01 0.89 -76.3 0 1 116.30 99.19 Q 116.26 98.15 116.22 97.11 Q 116.18 95.81 115.78 95.09 Q 114.78 93.28 113.12 95.18 A 1.41 1.38 -24.8 0 0 112.79 96.05 L 112.74 99.26 A 1.48 0.93 76.1 0 1 112.45 100.14 Q 111.68 100.98 111.03 99.88 A 1.66 1.10 -65.4 0 1 110.88 98.94 Q 111.10 96.85 110.76 94.75 Q 110.27 91.70 112.36 93.20 A 0.97 0.92 52.9 0 0 113.21 93.34 Z"/>
<path fill="rgb(0,103,86)" fill-opacity="1.000" d="M 98.03 95.46 Q 100.43 96.48 99.66 97.70 Q 99.20 98.44 97.96 98.78 Q 95.21 99.54 95.89 96.56 A 1.58 1.57 -72.2 0 1 98.03 95.46 Z"/>
<path fill="rgb(0,103,86)" fill-opacity="1.000" d="M 107.39 97.22 A 0.37 0.37 -60.0 0 1 107.54 97.80 Q 106.54 99.06 105.27 98.64 A 0.55 0.54 17.9 0 1 104.92 97.96 Q 105.39 96.44 107.39 97.22 Z"/>
<path fill="rgb(0,140,116)" fill-opacity="1.000" d="M 46.99 109.94 A 2.54 2.54 15.5 0 1 45.75 107.76 L 45.75 103.36 A 1.76 1.76 -6.9 0 1 47.09 101.65 Q 49.43 101.07 51.97 101.43 Q 54.73 101.82 54.91 104.05 Q 55.00 105.11 54.85 107.46 Q 54.64 110.75 50.74 110.32 Q 50.32 110.27 49.78 110.42 Q 48.42 110.80 46.99 109.94 Z"/>
<path fill="rgb(254,254,254)" fill-opacity="1.000" d="M 79.13 105.07 Q 79.69 103.26 79.78 105.15 Q 79.89 107.31 79.30 109.95 A 1.23 0.79 -89.4 0 1 78.79 110.73 Q 78.22 111.01 78.24 110.00 Q 78.28 107.80 79.13 105.07 Z"/>
<path fill="rgb(254,254,254)" fill-opacity="1.000" d="M 61.2240 110.3146 A 3.28 2.88 123.2 0 1 60.6101 105.9930 A 3.28 2.88 123.2 0 1 64.8160 104.8254 A 3.28 2.88 123.2 0 1 65.4299 109.1470 A 3.28 2.88 123.2 0 1 61.2240 110.3146 Z M 62.4901 109.7073 A 2.27 1.74 103.5 0 0 64.7119 107.9062 A 2.27 1.74 103.5 0 0 63.5499 105.2927 A 2.27 1.74 103.5 0 0 61.3281 107.0938 A 2.27 1.74 103.5 0 0 62.4901 109.7073 Z"/>
<ellipse fill="rgb(0,103,86)" fill-opacity="1.000" cx="0" cy="0" rx="2.27" ry="1.74" transform="translate(63.02,107.50) rotate(103.5)"/>
<path fill="rgb(254,254,254)" fill-opacity="1.000" d="M 103.97 105.73 Q 104.92 104.92 105.36 106.03 A 0.99 0.72 -41.9 0 1 105.18 106.88 Q 104.03 108.40 104.74 110.23 Q 104.92 110.72 104.44 110.60 Q 102.58 110.17 103.52 108.19 A 1.24 0.94 52.2 0 0 103.51 107.31 Q 103.15 106.42 103.97 105.73 Z"/>
<path fill="rgb(254,254,254)" fill-opacity="1.000" d="M 139.15 108.30 L 139.58 110.44 A 0.32 0.29 -87.9 0 1 139.21 110.82 Q 137.42 110.25 138.07 108.22 A 1.80 1.80 -42.7 0 0 138.11 107.27 Q 137.68 105.50 139.32 105.62 A 0.73 0.65 -2.2 0 1 139.98 106.16 Q 140.12 106.87 139.45 107.50 A 0.96 0.76 -31.2 0 0 139.15 108.30 Z"/>
<path fill="rgb(254,254,254)" fill-opacity="1.000" d="M 101.45 106.50 Q 103.02 107.91 101.81 109.81 Q 100.91 111.24 99.26 110.64 A 1.19 1.05 87.5 0 1 98.62 109.98 Q 97.49 106.94 100.57 106.28 A 1.03 0.97 -29.2 0 1 101.45 106.50 Z M 100.28 109.77 Q 101.13 109.41 101.22 108.52 Q 101.30 107.72 100.79 107.20 Q 100.04 106.44 99.43 109.05 Q 99.14 110.26 100.28 109.77 Z"/>
<path fill="rgb(254,254,254)" fill-opacity="1.000" d="M 68.75 106.50 Q 67.92 108.13 67.61 109.92 Q 67.42 111.06 66.95 110.72 A 1.55 1.53 -63.8 0 1 66.38 109.02 Q 67.38 105.74 68.75 106.50 Z"/>
<path fill="rgb(254,254,254)" fill-opacity="1.000" d="M 68.75 106.50 Q 69.92 105.72 70.31 107.19 Q 70.85 109.17 69.84 110.39 A 0.39 0.35 -38.9 0 1 69.21 110.36 Q 69.00 109.89 69.28 109.26 Q 70.00 107.67 68.75 106.50 Z"/>
<path fill="rgb(254,254,254)" fill-opacity="1.000" d="M 75.25 110.25 Q 75.92 108.96 75.95 107.56 A 0.32 0.31 -13.9 0 0 75.48 107.28 Q 73.37 108.39 75.25 110.25 Q 74.11 111.50 73.44 109.81 Q 72.50 107.46 74.81 106.56 Q 77.93 105.35 77.25 108.36 Q 77.14 108.85 77.07 109.79 Q 76.96 111.42 75.25 110.25 Z"/>
<path fill="rgb(254,254,254)" fill-opacity="1.000" d="M 85.00 107.00 Q 84.08 108.61 84.00 110.00 Q 83.97 110.61 83.55 110.71 A 0.49 0.38 85.9 0 1 83.08 110.19 Q 83.22 103.62 81.68 109.83 A 1.31 0.76 -87.1 0 1 81.17 110.62 Q 80.58 110.93 80.56 109.81 Q 80.49 104.53 85.00 107.00 Z"/>
<path fill="rgb(254,254,254)" fill-opacity="1.000" d="M 85.00 107.00 Q 85.73 105.32 86.69 107.06 Q 87.84 109.16 86.50 110.25 Q 85.32 111.22 85.44 109.53 Q 85.45 109.42 85.71 108.50 Q 85.99 107.53 85.00 107.00 Z"/>
<path fill="rgb(254,254,254)" fill-opacity="1.000" d="M 89.31 109.85 Q 91.31 109.55 90.38 110.43 A 1.21 1.21 24.4 0 1 89.50 110.76 Q 87.51 110.67 87.88 108.32 Q 88.23 106.01 89.09 107.50 A 1.57 0.86 73.8 0 0 89.75 108.16 Q 90.57 108.48 90.13 107.46 A 1.37 0.97 8.7 0 0 89.53 106.88 Q 88.40 106.30 89.94 106.30 A 1.17 1.01 -17.7 0 1 90.78 106.66 Q 92.00 108.04 90.00 108.75 Q 89.26 109.01 88.97 109.48 Q 88.69 109.95 89.31 109.85 Z"/>
<path fill="rgb(254,254,254)" fill-opacity="1.000" d="M 95.73 108.67 Q 96.35 108.17 96.54 107.31 Q 96.69 106.62 97.19 106.41 Q 97.73 106.18 97.63 106.81 Q 97.48 107.81 96.97 108.67 Q 95.97 110.35 95.63 110.39 Q 94.92 110.47 94.33 106.88 Q 94.23 106.23 94.76 106.62 Q 95.45 107.11 95.37 108.45 Q 95.33 108.99 95.73 108.67 Z"/>
<path fill="rgb(254,254,254)" fill-opacity="1.000" d="M 106.76 107.46 A 1.20 1.20 87.1 0 1 107.64 106.48 Q 109.60 105.96 108.23 107.40 Q 107.93 107.71 107.80 108.07 Q 105.92 113.11 106.76 107.46 Z"/>
<path fill="rgb(254,254,254)" fill-opacity="1.000" d="M 111.51 108.18 Q 112.22 108.50 112.17 107.89 A 1.28 0.75 26.2 0 0 111.69 107.16 Q 110.19 106.00 112.07 106.34 A 1.05 0.91 -5.8 0 1 112.81 106.86 Q 113.46 108.17 112.06 108.49 A 1.87 0.97 1.6 0 0 111.19 108.91 Q 109.90 110.22 111.94 109.90 A 0.47 0.35 -0.1 0 1 112.49 110.31 Q 112.41 110.61 112.00 110.75 Q 109.00 111.75 109.75 108.00 Q 110.21 105.70 110.90 107.47 A 1.39 0.96 83.9 0 0 111.51 108.18 Z"/>
<path fill="rgb(254,254,254)" fill-opacity="1.000" d="M 116.59 107.37 Q 120.70 104.21 119.32 109.70 A 0.99 0.93 88.2 0 1 118.73 110.37 Q 115.14 111.75 116.05 108.17 A 1.53 1.38 -14.0 0 1 116.59 107.37 Z M 117.15 109.39 Q 117.82 110.58 118.38 108.49 A 1.24 1.07 -56.4 0 0 118.26 107.56 Q 117.51 106.38 117.04 108.45 A 1.43 1.15 -57.8 0 0 117.15 109.39 Z"/>
<path fill="rgb(254,254,254)" fill-opacity="1.000" d="M 125.62 111.30 Q 126.46 109.99 124.50 108.80 A 1.06 1.06 12.5 0 1 124.00 108.02 Q 123.77 106.11 122.31 107.56 Q 121.75 108.12 121.69 109.47 Q 121.67 110.07 121.46 110.35 Q 121.11 110.80 120.68 110.53 A 0.84 0.62 -70.3 0 1 120.43 109.71 L 121.08 106.92 A 0.71 0.68 -85.2 0 1 121.69 106.38 Q 123.05 106.29 124.30 106.80 A 1.07 0.90 -89.8 0 1 124.87 107.48 Q 125.37 109.35 126.01 107.79 A 0.57 0.54 25.1 0 0 125.74 107.09 Q 123.86 106.10 127.04 106.26 A 0.69 0.51 -84.8 0 1 127.50 107.01 L 127.03 110.92 A 1.48 1.28 -84.7 0 1 125.65 112.24 Q 123.92 112.13 123.62 111.30 A 0.76 0.66 -29.0 0 1 123.92 110.48 Q 124.73 109.91 125.18 111.21 Q 125.35 111.72 125.62 111.30 Z"/>
<path fill="rgb(254,254,254)" fill-opacity="1.000" d="M 129.68 109.54 Q 129.71 110.23 131.66 109.77 Q 132.32 109.61 131.81 110.05 Q 129.64 111.92 128.63 109.83 Q 128.08 108.68 128.58 107.65 Q 129.19 106.41 130.70 106.31 A 0.89 0.85 71.4 0 1 131.48 106.72 Q 132.52 108.39 130.30 108.96 A 0.79 0.50 -10.8 0 0 129.68 109.54 Z M 130.67 108.12 Q 131.22 108.20 131.01 107.61 A 1.11 0.93 3.8 0 0 130.38 107.01 Q 129.03 106.52 130.27 107.88 Q 130.45 108.08 130.67 108.12 Z"/>
<path fill="rgb(254,254,254)" fill-opacity="1.000" d="M 135.49 107.32 L 135.23 106.78 Q 134.98 106.25 135.56 106.38 Q 137.13 106.71 136.84 108.56 Q 136.78 108.96 136.56 109.39 Q 134.96 112.54 135.67 108.24 A 1.79 1.04 48.7 0 0 135.49 107.32 Z"/>
<path fill="rgb(254,254,254)" fill-opacity="1.000" d="M 132.85 108.69 Q 132.48 106.07 134.29 106.78 A 0.59 0.45 -71.9 0 1 134.52 107.45 L 133.73 110.20 A 0.48 0.35 -71.1 0 1 133.21 110.56 Q 132.66 110.32 132.78 109.67 Q 132.90 109.03 132.85 108.69 Z"/>
<path fill="rgb(0,103,86)" fill-opacity="1.000" d="M 100.28 109.77 Q 99.14 110.26 99.43 109.05 Q 100.04 106.44 100.79 107.20 Q 101.30 107.72 101.22 108.52 Q 101.13 109.41 100.28 109.77 Z"/>
<path fill="rgb(67,150,135)" fill-opacity="1.000" d="M 130.27 107.88 Q 129.03 106.52 130.38 107.01 A 1.11 0.93 3.8 0 1 131.01 107.61 Q 131.22 108.20 130.67 108.12 Q 130.45 108.08 130.27 107.88 Z"/>
<path fill="rgb(0,103,86)" fill-opacity="1.000" d="M 75.25 110.25 Q 73.37 108.39 75.48 107.28 A 0.32 0.31 -13.9 0 1 75.95 107.56 Q 75.92 108.96 75.25 110.25 Z"/>
<path fill="rgb(0,103,86)" fill-opacity="1.000" d="M 117.04 108.45 Q 117.51 106.38 118.26 107.56 A 1.24 1.07 -56.4 0 1 118.38 108.49 Q 117.82 110.58 117.15 109.39 A 1.43 1.15 -57.8 0 1 117.04 108.45 Z"/>
</svg>